<svg id="Capa_1" enable-background="new 0 0 512 512" height="512" viewBox="0 0 512 512" width="512" xmlns="http://www.w3.org/2000/svg"><g><g><path d="m113.167 60.282-52.886 52.886-22.423-22.424c-5.858-5.858-5.858-15.355 0-21.213l31.672-31.673c5.858-5.858 15.355-5.858 21.213 0z" fill="#e28086"/></g><g><path d="m90.74 37.855c-5.856-5.856-15.351-5.856-21.207 0l-14.811 14.811c5.856-5.856 15.351-5.856 21.207 0l22.427 22.427 14.811-14.811z" fill="#dd636e"/></g><g><path d="m398.832 60.282 52.885 52.886 22.424-22.424c5.858-5.858 5.858-15.355 0-21.213l-31.672-31.672c-5.858-5.858-15.355-5.858-21.213 0z" fill="#e28086"/></g><g><path d="m474.145 69.534-11.576-11.576c3.421 5.755 2.673 13.3-2.278 18.251l-22.766 22.766 14.193 14.193 22.427-22.427c5.856-5.856 5.856-15.351 0-21.207z" fill="#dd636e"/></g><g><path d="m113.372 451.745-52.858-52.858-22.407 22.407c-5.858 5.858-5.858 15.355 0 21.213l31.645 31.645c5.858 5.858 15.355 5.858 21.213 0z" fill="#e28086"/></g><g><path d="m90.957 474.16c-5.853 5.853-15.343 5.853-21.196 0l-14.803-14.803c5.853 5.853 15.343 5.853 21.196 0l22.415-22.415 14.803 14.803z" fill="#dd636e"/></g><g><path d="m398.887 451.745 52.858-52.858 22.407 22.407c5.858 5.858 5.858 15.355 0 21.213l-31.645 31.645c-5.858 5.858-15.355 5.858-21.213 0z" fill="#e28086"/></g><g><path d="m474.16 442.499-11.57 11.57c3.419-5.752 2.671-13.293-2.277-18.242l-22.754-22.754 14.186-14.186 22.415 22.415c5.854 5.854 5.854 15.344 0 21.197z" fill="#dd636e"/></g><g><circle cx="255.999" cy="256" fill="#80b4fb" r="211.895"/></g><g><path d="m353.522 67.844c15.162 29.193 23.739 62.354 23.739 97.523 0 117.026-94.868 211.895-211.895 211.895-35.168 0-68.33-8.577-97.523-23.739 35.291 67.949 106.298 114.372 188.156 114.372 117.026 0 211.895-94.868 211.895-211.895 0-81.858-46.423-152.865-114.372-188.156z" fill="#61a2f9"/></g><g><g><path d="m255.999 504.5c-66.377 0-128.78-25.849-175.716-72.784s-72.783-109.339-72.783-175.716 25.849-128.78 72.784-175.715 109.339-72.784 175.715-72.784c66.377 0 128.78 25.848 175.716 72.784 46.936 46.935 72.785 109.338 72.785 175.715s-25.848 128.78-72.784 175.716c-46.936 46.935-109.339 72.784-175.717 72.784zm0-423.79c-96.655 0-175.29 78.635-175.29 175.29s78.635 175.29 175.29 175.29 175.291-78.635 175.291-175.29-78.636-175.29-175.291-175.29z" fill="#f4fbff"/></g></g><g><path d="m431.716 80.285c-6.23-6.23-12.74-12.076-19.488-17.552 35.778 44.091 55.231 98.661 55.231 156.227 0 66.377-25.848 128.78-72.784 175.716s-109.339 72.784-175.716 72.784c-57.566 0-112.136-19.454-156.227-55.232 5.476 6.748 11.322 13.258 17.552 19.488 46.935 46.935 109.339 72.784 175.716 72.784s128.78-25.848 175.716-72.784c46.935-46.936 72.784-109.339 72.784-175.716s-25.849-128.78-72.784-175.715z" fill="#e4f6ff"/></g><g><path d="m431.29 256c0 29.483-7.328 57.283-20.241 81.693l63.555 36.694c19.519-35.926 29.896-76.357 29.896-118.387s-10.377-82.461-29.896-118.386l-63.555 36.694c12.913 24.409 20.241 52.209 20.241 81.692z" fill="#e28086"/></g><g><path d="m137.613 37.396 36.693 63.555c24.409-12.913 52.209-20.241 81.693-20.241s57.283 7.328 81.693 20.241l36.694-63.555c-35.926-19.519-76.356-29.895-118.387-29.895-42.029 0-82.46 10.376-118.386 29.895z" fill="#e28086"/></g><g><path d="m80.71 256c0-29.483 7.328-57.283 20.241-81.693l-63.555-36.693c-19.519 35.926-29.896 76.356-29.896 118.386s10.377 82.46 29.896 118.386l63.555-36.693c-12.913-24.41-20.241-52.21-20.241-81.693z" fill="#e28086"/></g><g><path d="m374.386 474.604-36.694-63.555c-24.409 12.913-52.209 20.241-81.693 20.241s-57.283-7.328-81.693-20.241l-36.693 63.555c35.926 19.519 76.356 29.896 118.386 29.896 42.031 0 82.461-10.377 118.387-29.896z" fill="#e28086"/></g><g><path d="m474.604 137.614-17.471 10.086c6.797 22.829 10.326 46.772 10.326 71.259 0 46.671-12.795 91.368-36.698 130.114l43.843 25.313c19.519-35.925 29.896-76.356 29.896-118.386s-10.377-82.461-29.896-118.386z" fill="#dd636e"/></g><g><path d="m218.959 467.459c-24.487 0-48.43-3.529-71.258-10.326l-10.087 17.471c35.926 19.519 76.356 29.896 118.386 29.896s82.461-10.377 118.386-29.896l-25.313-43.843c-38.746 23.903-83.444 36.698-130.114 36.698z" fill="#dd636e"/></g><g><path d="m310.524 304.234c4.142-.023 7.481-3.4 7.458-7.542-.023-4.128-3.376-7.458-7.499-7.458-.015 0-.028 0-.043 0-6.391.036-13.271.061-18.251.062v-66.159c0-4.142-3.357-7.5-7.5-7.5s-7.5 3.358-7.5 7.5v73.597c0 3.652 2.631 6.774 6.231 7.392.531.091 18.776.155 27.104.108z"/><path d="m181.607 215.637c-4.142 0-7.5 3.358-7.5 7.5v28.066h-35.973v-28.066c0-4.142-3.358-7.5-7.5-7.5s-7.5 3.358-7.5 7.5v73.659c0 4.142 3.358 7.5 7.5 7.5s7.5-3.358 7.5-7.5v-30.593h35.973v30.593c0 4.142 3.358 7.5 7.5 7.5s7.5-3.358 7.5-7.5v-73.659c0-4.142-3.358-7.5-7.5-7.5z"/><path d="m248.645 231.31c4.142 0 7.5-3.358 7.5-7.5s-3.358-7.5-7.5-7.5h-30.753c-4.142 0-7.5 3.358-7.5 7.5v72.987c0 4.142 3.358 7.5 7.5 7.5h30.753c4.142 0 7.5-3.358 7.5-7.5s-3.358-7.5-7.5-7.5h-23.253v-21.493h20.986c4.142 0 7.5-3.358 7.5-7.5s-3.358-7.5-7.5-7.5h-20.986v-21.494z"/><path d="m343.103 304.633c4.143 0 7.5-3.358 7.5-7.5v-24.536c4.52-.024 10.012-.05 13.01-.05 15.821 0 28.693-12.689 28.693-28.287s-12.872-28.287-28.693-28.287h-20.51c-4.03-.08-7.57 3.476-7.5 7.5v73.659c0 4.143 3.357 7.501 7.5 7.501zm20.51-73.659c7.423 0 13.693 6.084 13.693 13.287 0 7.202-6.27 13.287-13.693 13.287-2.976 0-8.4.025-12.909.049-.024-4.644-.064-21.771-.078-26.622h12.987z"/><path d="m485.653 84.161c1.266-7.017-.796-14.521-6.207-19.934l-31.673-31.672c-4.25-4.25-9.899-6.59-15.91-6.59-1.367 0-2.711.137-4.028.374-9.274-16.18-26.518-26.339-45.511-26.339-4.143 0-7.5 3.358-7.5 7.5s3.357 7.5 7.5 7.5c13.534 0 25.81 7.232 32.443 18.74l-12.257 12.258c-18.559-13.006-38.637-23.404-59.781-30.998h6.02c4.143 0 7.5-3.358 7.5-7.5s-3.357-7.5-7.5-7.5h-219.074c-18.92 0-36.23 10.177-45.509 26.338-1.317-.237-2.662-.374-4.029-.374-6.01 0-11.661 2.34-15.91 6.59l-31.672 31.673c-5.539 5.539-7.572 13.27-6.116 20.425-16.229 9.263-26.439 26.581-26.439 45.58l.26 251.608c0 19.004 10.192 36.281 26.411 45.539-.299 1.472-.457 2.985-.457 4.521 0 6.01 2.34 11.661 6.59 15.91l31.644 31.644c4.25 4.25 9.9 6.59 15.91 6.59 1.365 0 2.706-.136 4.022-.373 9.269 16.171 26.522 26.329 45.491 26.329h252.518c19.074 0 36.238-10.132 45.493-26.326 1.314.236 2.655.372 4.019.372 6.01 0 11.66-2.341 15.909-6.59l31.646-31.644c5.41-5.411 7.471-12.912 6.208-19.927 16.176-9.269 26.336-26.52 26.336-45.496v-252.714c0-19.03-10.154-36.247-26.347-45.514zm-59.094-40.999c1.417-1.417 3.301-2.197 5.304-2.197 2.004 0 3.887.78 5.303 2.197l31.673 31.672c2.925 2.924 2.925 7.683 0 10.607l-11.904 11.904c-6.161-7.772-12.796-15.244-19.914-22.363-7.119-7.119-14.592-13.754-22.364-19.915zm-.147 383.25c-14.93 14.929-31.481 27.643-49.245 38.01l-29.154-50.495c22.335-13.026 41.711-30.693 56.984-52.146 3.19-4.481 6.156-9.08 8.908-13.779l50.517 29.166c-10.367 17.764-23.08 34.315-38.01 49.244zm-340.825 0c-14.929-14.929-27.643-31.481-38.01-49.245l50.526-29.171c15.922 27.222 38.677 49.977 65.899 65.899l-29.171 50.526c-17.763-10.366-34.314-23.079-49.244-38.009zm91.67-5.472c23.859 11.437 50.565 17.85 78.743 17.85 10.027 0 20.092-.824 29.915-2.448 4.087-.675 6.852-4.536 6.176-8.623-.676-4.086-4.534-6.851-8.623-6.176-9.017 1.491-18.258 2.247-27.468 2.247-92.519 0-167.79-75.27-167.79-167.79 0-7.672.525-15.391 1.562-22.941.563-4.104-2.307-7.887-6.41-8.45-4.103-.566-7.887 2.307-8.45 6.41-1.129 8.225-1.702 16.629-1.702 24.981 0 28.178 6.413 54.884 17.85 78.743l-50.647 29.241c-15.484-30.838-24.159-64.858-25.275-100.187l-.016-15.165c1.059-35.483 9.744-69.653 25.291-100.616l50.641 29.237c-2.836 5.929-5.378 12.048-7.59 18.349-1.372 3.908.684 8.188 4.593 9.561 3.908 1.373 8.189-.684 9.561-4.592 2.835-8.088 6.259-15.82 10.198-23.246 28.815-54.164 85.597-89.115 148.184-89.115 92.519 0 167.79 75.27 167.79 167.79 0 62.414-35.098 119.459-89.308 148.278-6.707 3.551-13.667 6.687-20.914 9.338-3.89 1.425-5.887 5.733-4.462 9.623 1.113 3.038 3.985 4.921 7.043 4.921.856 0 1.729-.148 2.579-.46 5.469-2.004 10.814-4.256 16.024-6.745l29.233 50.632c-33.103 16.62-69.868 25.413-107.985 25.413s-74.883-8.793-107.984-25.413zm-91.67-335.352c14.929-14.929 31.481-27.643 49.245-38.01l29.183 50.546c-27.001 15.756-49.862 38.338-65.934 65.865l-50.503-29.158c10.366-17.762 23.08-34.314 38.009-49.243zm386 278.396-50.631-29.232c11.728-24.435 17.833-51.183 17.833-78.752 0-28.177-6.413-54.884-17.85-78.743l50.647-29.242c16.621 33.102 25.414 69.867 25.414 107.985s-8.793 74.883-25.413 107.984zm-57.692-199.98c-15.922-27.222-38.677-49.978-65.9-65.9l29.172-50.526c17.764 10.367 34.315 23.08 49.245 38.01 14.929 14.929 27.643 31.481 38.01 49.244zm-49.912-123.59-29.241 50.646c-23.859-11.436-50.565-17.85-78.742-17.85-27.844 0-54.635 6.349-78.726 17.88l-29.258-50.676c33.101-16.621 69.866-25.414 107.984-25.414s74.882 8.793 107.983 25.414zm-234.308-25.414h39.595c-21.144 7.594-41.222 17.992-59.78 30.998l-12.255-12.254c6.637-11.495 18.956-18.744 32.44-18.744zm-86.514 59.834 31.672-31.672c2.924-2.924 7.682-2.925 10.607 0l11.904 11.905c-7.771 6.161-15.244 12.795-22.363 19.914s-13.754 14.592-19.915 22.364l-11.905-11.904c-2.924-2.925-2.924-7.683 0-10.607zm-28.161 55.39c0-13.642 7.388-26.053 19.092-32.639l11.905 11.905c-12.984 18.526-23.367 38.568-30.958 59.672zm.26 251.608-.04-38.509c7.598 20.99 17.955 40.926 30.895 59.358l-11.777 11.777c-11.7-6.581-19.078-18.967-19.078-32.626zm59.796 87.017-31.644-31.644c-1.417-1.417-2.197-3.3-2.197-5.304 0-2.003.78-3.887 2.197-5.303l11.783-11.783c6.126 7.714 12.717 15.134 19.787 22.204 7.159 7.159 14.674 13.828 22.493 20.018l-11.812 11.812c-2.925 2.924-7.682 2.925-10.607 0zm54.815 28.151c-13.514 0-25.79-7.231-32.419-18.727l12.176-12.176c18.52 12.961 38.55 23.328 59.642 30.903zm252.518 0h-39.66c21.15-7.596 41.234-17.998 59.797-31.009l12.293 12.293c-6.619 11.513-18.843 18.716-32.43 18.716zm86.46-59.796-31.645 31.644c-1.416 1.417-3.3 2.197-5.303 2.197s-3.887-.78-5.303-2.197l-11.927-11.927c7.767-6.158 15.235-12.788 22.349-19.903 7.114-7.114 13.744-14.582 19.902-22.348l11.927 11.927c2.925 2.925 2.925 7.683 0 10.607zm28.151-54.815c0 13.516-7.229 25.79-18.727 32.419l-12.282-12.282c13.011-18.563 23.413-38.646 31.009-59.796zm-30.998-272.9 12.26-12.259c11.513 6.629 18.738 18.887 18.738 32.445v39.595c-7.594-21.144-17.992-41.222-30.998-59.781z"/></g></g></svg>